<?xml version="1.0" encoding="utf-8"?>
<!-- Generator: Adobe Illustrator 19.0.0, SVG Export Plug-In . SVG Version: 6.00 Build 0)  -->
<svg version="1.1" id="Layer_1" xmlns="http://www.w3.org/2000/svg" xmlns:xlink="http://www.w3.org/1999/xlink" x="0px" y="0px"
	 viewBox="167.6 322.4 680.7 326" style="enable-background:new 167.6 322.4 680.7 326;" xml:space="preserve">
<style type="text/css">
	.st0{display:none;}
	.st1{display:inline;}
	.st2{fill:#171717;}
	.st3{display:none;fill:#171717;}
	.st4{display:inline;fill:#A51E25;}
	.st5{display:inline;fill:#171717;}
	.st6{font-family:'ShonarBangla';}
	.st7{font-size:34.8596px;}
	.st8{fill:url(#XMLID_26_);}
	.st9{fill:#131313;}
	.st10{fill:#F1F1F1;}
	.st11{display:inline;fill:#F9F9F9;}
	.st12{fill:#F9F9F9;}
	.st13{fill:url(#XMLID_36_);}
	.st14{display:none;fill:#F9F9F9;}
	.st15{fill:#F7F7F7;}
	.st16{display:none;fill:#F7F7F7;}
</style>
<g id="Layer_16" class="st0">
	<g id="Layer_15" class="st1">
		<path id="XMLID_34_" class="st2" d="M161.7,483.3"/>
		<polygon id="XMLID_88_" class="st2" points="188.2,297 204.4,347.9 222,297 		"/>
		<g id="XMLID_13_">
			<path id="XMLID_23_" class="st2" d="M287.3,384.3c7-24.8,29.5-41.2,57.8-41.5c21.5-0.3,37.7,3.7,47.1,15.7
				c4.6,5.8,4.3,6.5,4.3,6.5h4.7l-3-38.5h-5.7c-0.8,3.3-1.9,5.5-3.6,7.7c-1.7,2.1-4.1,1.7-6.7,1.7c-0.8,0-1.8-0.2-2.9-0.7
				c-1.2-0.5-2.6-1.2-4.2-2c-5.8-2.9-11.6-5.1-17.5-6.5s-11.8-2.1-17.7-2.1c-11.9,0-23,2.3-33.2,6.9s-19,10.9-26.5,18.8
				c-7.5,8-13.3,17.3-17.6,28c-4.2,10.7-6.4,22.3-6.4,34.7c0,5.1,0.4,10.1,1.1,14.8h29.4C286.5,427.5,281,406.3,287.3,384.3z"/>
			<path id="XMLID_30_" class="st2" d="M262,446.2c4,10.2,9.5,18.9,16.6,26.4c7.1,7.4,15.6,13.2,25.3,17.3
				c9.8,4.1,20.5,6.1,32.1,6.1c15.1,0,28.2-3.4,39.2-10.2c9.9-6.1,20.7-14.5,28.4-27v6h5.3l0.2-24.5h-6c0,0-0.2,5.3-6.2,12.5
				c-7.4,9-23.7,25.3-51.7,25.3c-33.4,0-51.8-24.4-54.6-32.5h-28.8C261.8,445.7,261.9,446,262,446.2z"/>
			<path id="XMLID_83_" class="st2" d="M450.3,413.5h36c5.4,0,9.6,0.4,12.7,1.2c7,1.8,10.2,6,11,9.1c0.3,1.2,0.6,3,0.9,4.5h5.7
				v-45.9h-4.4c-0.2,4.2-1.2,7.9-5.3,11.2c-2.2,1.7-4.5,3.4-7.8,4.3s-7.5,1.4-12.8,1.4h-36v-58.5h45.1c5.6,0,10.2,0.3,13.8,0.8
				c3.6,0.5,8.1,1.1,10.5,2.9c6.7,5.1,5.8,11.3,5.8,11.3h4.7V328H411.6v4.4h5.7c6.8,0,8.5,8.2,9,11.5s0.7,7.5,0.7,12.7v70.9h23.3
				L450.3,413.5L450.3,413.5z"/>
			<path id="XMLID_84_" class="st2" d="M427,463.2c0,8.1-0.8,13.3-1.5,16c-1,4.1-6.4,8.5-7.9,8.5h-5.7v4.5h111.8l11.6-29.6h-4.8
				c-5.4,10.3-16.1,14.3-18.5,15s-5.1,1.2-8.3,1.5c-3.2,0.2-7.2,0.4-11.9,0.4H464c-2.3,0-4.2-0.1-5.7-0.4c-1.5-0.2-2.7-0.6-3.6-1
				s-1.7-1-2.2-1.6s-1-1.3-1.2-2.1c-0.6-1.6-0.9-2.2-0.9-9.6v-19.3H427V463.2z"/>
			<path id="XMLID_85_" class="st3" d="M596.4,491.3c-0.4,6.4-1.5,15.3-2.3,19c-0.9,3.7-8.8,9-14.1,9.1v5.7h44.2v-5.7
				c-4.7-0.7-5.1-0.4-7.5-8.8c-1-3.5-1.3-10.6-1-17l3.4-48h-19.3L596.4,491.3z"/>
			<path id="XMLID_92_" class="st3" d="M739.8,342.9h-10.5l3.8,84.6h14.6l-3.6-77.8c-0.2-0.7,0.5-9.2,1.2-10.9
				c0.6-1.7,2.2-3.5,4.7-5.5c1.6-1.3,3.1-2,4.5-2.3c1.3-0.3,0.2-0.6,3.4-0.9V325h-26.6L693,427.5h14L739.8,342.9z"/>
			<path id="XMLID_93_" class="st3" d="M735.3,468.9c0.4,7-0.2,22.7-11.6,22.7v5.9h40.2v-5.9c-11.1,0-12.7-15.1-12.9-20.2l-1.2-26
				h-15.5L735.3,468.9z"/>
			<path id="XMLID_94_" class="st3" d="M624,348.3h-5.7l30.2,79.2H670L632.4,325h-41.6v5.1c3.3,0.2,3.2,0.5,5.1,0.7
				c1.9,0.3,4,1.2,6.6,2.7c2.4,1.9,3.1,8.1,3.1,8.6l-4.7,85.4H620L624,348.3z"/>
			<polygon id="XMLID_95_" class="st3" points="681.3,462 675.3,445.5 655.3,445.5 673.1,497.5 685,497.5 702.5,445.5 688.5,445.5 
							"/>
			<path id="XMLID_105_" class="st2" d="M221.7,460.5h-37.3l-7.4,31.9h52.6C229.6,491.5,221.7,460.5,221.7,460.5z"/>
			<path id="XMLID_107_" class="st2" d="M260.8,479.6c0,0-3.1,14.9-7,14.9c-0.5,0,0.7,0,0.7,0c-0.8-1.1-1.6-2.6-2.3-4.4
				c-1.6-3.9-3.9-12-7-24.5l-6.6-22.6h-17.2l8.3,29.4c2,8.1,2.6,13.6,2.9,16.4c0.4,3.3-1.1,5.7-1.1,5.7h-55.4
				c-2.9-1.1-3.2-5.1-3-6.2l13.8-45.3h-9.6c0,0-13.7,41.3-15.4,45.4c-1,2.5-5,5.4-8.1,6.1h-6.5v9.1h116.3v-23.9h-2.8V479.6z"/>
			<path id="XMLID_101_" class="st2" d="M203.2,387.9l11.2,36.3h18.8l-16.2-61l25.2-80.2c3.1-9.9,5.3-16.4,6.7-19.4
				c1.4-2.9,3.2-5.4,5.6-7.5h3.4V247H147.3v20.7h2.5c0,0,1.7-11.5,3.4-11.5c1.8,0,5.3,0,5.3,0c2.2,1.5,4,3.6,5.3,6.4
				c1.4,2.9,3.7,9.7,6.9,20.4l28.3,84.3l-18.1,57h10.7L203.2,387.9z M183.9,298.2c-1.3-4-2-7.6-2-10.9c0-4,1.3-15.7,3.7-17.3h36.8
				c2.5,1.1,3.7,12.8,3.7,17.1c0,2.5-0.7,5.7-2.1,9.9l-20.6,58.6L183.9,298.2z"/>
		</g>
	</g>
</g>
<g id="Layer_11" class="st0">
	<rect id="XMLID_58_" x="-518.3" y="-126" class="st4" width="1053" height="1202"/>
</g>
<g id="Layer_18" class="st0">
	<g id="XMLID_29_" class="st1">
		<path id="XMLID_98_" class="st2" d="M288.5,473.7c0-13.5,1.4-25.2,4.3-35.3c2.9-10.1,6.9-18.4,11.9-25c5.1-6.6,11.1-11.5,18-14.8
			s14.5-4.9,22.6-4.9c6.6,0,12.8,0.9,18.5,2.6s10.8,4.4,15.5,8.2c4.7,3.8,8.9,8.6,12.5,14.6s6.8,13.2,9.4,21.7h3.7l-3.7-55.8H397
			c-0.8,3.3-2,6.1-3.7,8.2s-3.9,3.2-6.5,3.2c-0.8,0-1.8-0.2-2.9-0.7c-1.2-0.5-2.6-1.2-4.2-2c-5.8-2.9-11.6-5.1-17.5-6.5
			s-11.8-2.1-17.7-2.1c-11.9,0-23,2.3-33.2,6.9s-19,10.9-26.5,18.8c-7.5,8-13.3,17.3-17.6,28c-4.2,10.7-6.4,22.3-6.4,34.7
			c0,5.1,0.4,10.1,1.1,14.8h27.5C288.8,483.8,288.5,478.9,288.5,473.7z"/>
		<path id="XMLID_97_" class="st2" d="M266.7,507.1c4,10.2,9.5,18.9,16.6,26.4c7.1,7.4,15.6,13.2,25.3,17.3
			c9.8,4.1,20.5,6.1,32.1,6.1c15.1,0,28.2-3.4,39.2-10.2s20.6-17.5,28.8-32.1l-3.8-2.5c-5,6.8-9.6,12.4-13.9,16.8
			c-4.3,4.4-8.6,7.9-12.9,10.5s-8.7,4.4-13.3,5.3c-4.6,1-9.6,1.5-14.9,1.5c-9.5,0-18-1.6-25.6-4.8s-14-7.9-19.3-14.1
			c-4.9-5.7-8.8-12.7-11.6-20.8h-26.9C266.6,506.7,266.6,506.9,266.7,507.1z"/>
		<path id="XMLID_96_" class="st2" d="M455,471.5h36c5.4,0,9.6,0.4,12.7,1.2c3.1,0.8,5.5,2.2,7.3,4.1c1.7,1.9,3,4.4,3.7,7.5
			c0.3,1.2,0.6,2.6,0.9,4h5.7v-49.5H517c-0.2,4.2-0.7,7.8-1.4,10.8s-2.1,5.4-4,7.4c-1.9,2-4.5,3.4-7.8,4.3s-7.5,1.4-12.8,1.4h-36
			v-64.9h45.1c5.6,0,10.2,0.3,13.8,0.8c3.6,0.5,6.6,1.8,8.9,3.7c2.3,1.9,4.1,4.6,5.4,8.2c1.3,3.6,2.6,8.3,3.7,14.3h2.9V389H408.3
			v4.4h5.7c6.8,0,11.7,1.6,14.6,4.8c1.1,1.2,1.9,3.4,2.3,6.7c0.5,3.3,0.7,7.5,0.7,12.7v70.9H455V471.5z"/>
		<path id="XMLID_91_" class="st2" d="M431.7,524.1c0,8.1-0.5,13.4-1.5,16c-0.6,1.5-1.5,2.7-2.6,3.8c-1.2,1.1-2.5,2-4,2.6
			c-1.5,0.7-3.1,1.2-4.8,1.5c-1.7,0.3-3.3,0.5-4.9,0.5h-5.7v4.5h126.6l14.2-41.1h-4.8c-5.4,10.3-10.5,17.9-15.4,22.5
			c-2.1,2-4,3.7-5.9,4.9s-4,2.2-6.3,2.9s-5.1,1.2-8.3,1.5c-3.2,0.2-7.2,0.4-11.9,0.4h-27.8c-2.3,0-4.2-0.1-5.7-0.4
			c-1.5-0.2-2.7-0.6-3.6-1s-1.7-1-2.2-1.6s-1-1.3-1.2-2.1c-0.6-1.6-0.9-6-0.9-13.3v-19.3h-23.3L431.7,524.1L431.7,524.1z"/>
		<path id="XMLID_90_" class="st2" d="M601.4,552.2c-0.4,6.4-1.5,15.3-2.3,19c-0.9,3.7-7,9-12.2,9.1v5.7h41.3v-5.7
			c-4.7-0.7-5.4-1.9-7.7-3.4c-2.4-1.5-4.1-4-5.2-7.6c-1.1-3.5-1.5-8.5-1.2-14.9l3.4-48h-12.7L601.4,552.2z"/>
		<path id="XMLID_89_" class="st2" d="M741.6,403.8h-10.5l3.8,84.6H754l-3.6-77.8c-0.2-0.7,0.5-9.2,1.2-10.9
			c0.6-1.7,2.2-3.5,4.7-5.5c1.6-1.3,3.1-2,4.5-2.3c1.3-0.3,3.6-0.6,6.7-0.9v-5.1H733l-38.2,102.5h14L741.6,403.8z"/>
		<path id="XMLID_81_" class="st2" d="M737,529.8c0.4,7-0.7,12.1-3.1,15.4c-2.5,3.3-5.3,6.6-12.3,7.3v5.9h53.1v-5.9
			c-7.7-0.1-12.7-3.2-15-6.9s-3.5-8.1-3.7-13.2l-1.2-26H736L737,529.8z"/>
		<path id="XMLID_80_" class="st2" d="M622.1,409.3H620l30.2,79.2h21.6L634.2,386h-41.6v5.1c3.3,0.2,5.9,0.5,7.8,0.7
			c1.9,0.3,4,1.2,6.6,2.7c2.4,1.9,3.1,8.1,3.1,8.6l-4.7,85.4h12.8L622.1,409.3z"/>
		<polygon id="XMLID_66_" class="st2" points="683.1,522.9 677,506.4 657,506.4 674.8,558.4 686.7,558.4 704.2,506.4 690.2,506.4 		
			"/>
	</g>
	<polygon id="XMLID_5_" class="st5" points="232,525 198.8,525 191.3,550.7 237.6,550.7 	"/>
	<path id="XMLID_6_" class="st5" d="M254.1,539.7c0,0-0.3,9.8-2.9,9.8c-0.4,0-1.4-0.2-1.4-0.2c-0.6-0.8-1.1-1.8-1.6-3
		c-1.1-2.7-10.3-31.8-10.3-31.8h-10.5l6.3,20.1c1.4,5.6,2,9.3,2,11.3c0,0.8-0.1,1.6-0.2,2.2c0,0-0.5,1.4-0.8,1.9h-37.5
		c-0.7-1-0.9-4.3-0.9-4.3l0,0c0-2.8,0.6-6.4,1.7-10.7l5.4-20.5h-8.8l-9.5,31.3c0,0.2-2,3.8-3,4.2h-8.5v6.2H256v-16.5H254.1z"/>
	<path id="XMLID_35_" class="st5" d="M215.5,476.4l14.1,45.3h10.5l-19.3-62.2l17.4-55.4c2.1-6.9,3.7-11.3,4.6-13.4
		c0.9-2,2.3-3.8,4-5.2h6.5v-6.3h-76.4v14.3h1.7c0,0,1.1-8,2.4-8c1.2,0,3.7,0,3.7,0c1.5,1,2.8,2.5,3.7,4.4c1,2,2.6,6.7,4.8,14.1
		l17.9,58.2L193,519.5h9L215.5,476.4z M202.6,411.9c-0.9-2.8-1.4-5.4-1.4-7.6c0-2.8,0.9-11.1,2.6-12.2h25.9c1.7,0.8,2.6,9,2.6,12
		c0,1.7-0.5,4-1.5,6.9l-14.5,41.2L202.6,411.9z"/>
	<polygon id="XMLID_102_" class="st5" points="205.1,421.2 216.3,456.4 228.4,421.2 	"/>
</g>
<g id="Layer_17" class="st0">
	<g id="XMLID_78_" class="st1">
		<path id="XMLID_165_" class="st2" d="M198.3,360.7h4.3v-3.3h-4.3V357h-3.9v0.4h-11.1l0.3-0.4h-2.1l-0.5,0.7v3h13.5v1.2
			c1.3,0,2.6,0,3.9,0L198.3,360.7L198.3,360.7z"/>
		<rect id="XMLID_164_" x="194.5" y="365.3" class="st2" width="3.9" height="3.7"/>
		<polygon id="XMLID_163_" class="st2" points="194.5,341.5 194.5,357.2 198.3,357.2 198.3,336.6 195.8,336.6 181,357.7 
			183.1,357.7 		"/>
		<path id="XMLID_128_" class="st2" d="M238.1,359.8V357h-4.5v2.9c0,0.5,0,1.7,0,2.1c1.5,0,3,0,4.5,0
			C238.1,361.5,238.1,360.3,238.1,359.8z"/>
		<path id="XMLID_127_" class="st2" d="M241.5,368.2c-0.8,0-1.5-0.2-2.1-0.5c-0.3-0.2-0.5-0.3-0.7-0.5s-0.3-0.4-0.4-0.7
			c-0.1-0.3-0.2-0.7-0.2-1.1c0-0.2,0,0.2,0,0c-1.5,0-3,0-4.5,0c-0.1,1.1-0.2,1.3-0.5,1.7c-0.6,0.8-1.5,1.1-2.9,1.1h-1.1v0.9h13.6
			v-0.9H241.5z"/>
		<path id="XMLID_126_" class="st2" d="M261.3,367.9c-0.7-0.2-1.3-0.5-2.1-0.9c-0.6-0.3-1.9-1.2-2.6-1.7c-2.5,0-4,0-6.5,0
			c0.1,0.2,0.6,0.7,0.6,0.9c0,0.1,0,0.3,0,0.5c0,0.4-0.2,0.7-0.6,1c-0.4,0.3-1,0.5-2,0.5v0.9h15.1v-0.9
			C262.7,368.1,262,368,261.3,367.9z"/>
		<path id="XMLID_125_" class="st2" d="M238.1,353.2l8.9,8.7h6.3l-10.6-10.5l4.9-4.8c1.4-1.4,2.5-2.6,3.3-3.4s1.3-1.3,1.4-1.4
			c0.9-0.8,1.7-1.5,2.4-2s1.2-0.8,1.7-1.1c0.5-0.2,1-0.4,1.4-0.5s0.9-0.1,1.4-0.2v-0.9h-11.7v0.9h0.7c0.8,0,1.4,0.1,1.7,0.4
			s0.5,0.6,0.5,1s-0.2,0.8-0.5,1.3s-0.8,1.2-1.5,1.9c-0.7,0.8-1.6,1.7-2.8,2.9c-1.2,1.1-2.6,2.5-4.3,4l-3.2,3v-9.7
			c0-1.6,0.1-2.6,0.3-3.1c0.2-0.6,0.7-1,1.3-1.3s1.2-0.4,1.8-0.4h1.1v-0.9H229v0.9h1.1c0.7,0,1.5,0.2,2.2,0.6
			c0.3,0.2,0.5,0.4,0.7,0.5c0.2,0.2,0.3,0.4,0.4,0.7c0.1,0.3,0.1,0.7,0.2,1.1c0,0.5,0,1.1,0,1.8V357h4.5L238.1,353.2L238.1,353.2z"
			/>
		<path id="XMLID_113_" class="st2" d="M272.8,353.2l8.8,8.7h6.3l-10.6-10.5l4.9-4.8c1.4-1.4,2.5-2.6,3.3-3.4s1.3-1.3,1.4-1.4
			c0.9-0.8,1.7-1.5,2.4-2c0.7-0.5,1.2-0.8,1.7-1.1c0.5-0.2,1-0.4,1.4-0.5s0.9-0.1,1.4-0.2v-0.9h-11.7v0.9h0.7c0.8,0,1.4,0.1,1.7,0.4
			c0.3,0.3,0.5,0.6,0.5,1s-0.2,0.8-0.5,1.3s-0.8,1.2-1.5,1.9c-0.7,0.8-1.6,1.7-2.8,2.9c-1.2,1.1-2.6,2.5-4.3,4l-3.2,3v-9.7
			c0-1.6,0.1-2.6,0.3-3.1c0.2-0.6,0.7-1,1.3-1.3c0.6-0.3,1.2-0.4,1.8-0.4h1.1v-0.9h-13.6v0.9h1.1c0.7,0,1.5,0.2,2.2,0.6
			c0.3,0.2,0.5,0.4,0.7,0.5c0.2,0.2,0.3,0.4,0.4,0.7c0.1,0.3,0.1,0.7,0.2,1.1c0,0.5,0,1.1,0,1.8v19h4.5v-8.5H272.8z"/>
		<path id="XMLID_112_" class="st2" d="M296,367.9c-0.7-0.2-1.3-0.5-2.1-0.9c-0.7-0.4-1.5-0.9-2.3-1.5l-0.2-0.2c0,0-4.3,0-6.5,0
			c0.1,0.1,0.1,0.2,0.2,0.4c0.1,0.2,0.2,0.3,0.2,0.5c0,0.1,0,0.3,0,0.5c0,0.4-0.2,0.7-0.6,1s-1,0.5-2,0.5v0.9h15.1v-0.9
			C297.4,368.1,296.7,368,296,367.9z"/>
		<path id="XMLID_111_" class="st2" d="M276.2,368.2c-0.8,0-1.5-0.2-2.1-0.5c-0.3-0.2-0.5-0.3-0.7-0.5s-0.3-0.4-0.4-0.7
			c-0.1-0.2-0.1-0.9-0.1-1.1c-1.6,0-3.1,0-4.7,0c-0.1,0.6-0.2,1.5-0.4,1.7c-0.6,0.8-1.5,1.1-2.9,1.1h-1.1v0.9h13.6v-0.9H276.2z"/>
		<path id="XMLID_110_" class="st2" d="M327.8,339.7c0.7-1.1,1.6-1.6,2.9-1.6h1.2v-0.9h-11.3v0.9h1.2c1.2,0,2.1,0.4,2.7,1
			c0.4,0.5,0.7,1.7,0.7,3.7v19h2.1V343C327.3,341.3,327.4,340.2,327.8,339.7z"/>
		<path id="XMLID_109_" class="st2" d="M323.6,365.6c-1,1-2.6,1.5-3.1,1.6c-1.5,0.5-3.1,0.8-4.8,0.8c-2.2,0-3.9-0.4-5.1-1.1
			c-0.7-0.4-1.5-0.8-2.1-1.7c-1.7,0-3.7,0-5.4,0c0,0.1,1.1,1.6,2.1,2.5c1.1,0.8,2.4,1.5,4.1,2c1.6,0.5,3.7,0.7,6,0.7
			c0.9,0,1.9,0,2.8-0.1s1.9-0.3,2.8-0.6c0.9-0.3,1.8-0.6,2.6-1.1c0.9-0.5,1.8-1,2.4-1.9c0.6-0.8,0.6-0.7,1.1-1.5c-1,0-2.1,0-3.1,0
			C323.8,365.4,323.7,365.5,323.6,365.6z"/>
		<path id="XMLID_108_" class="st2" d="M307,342.9c0-1,0.1-1.8,0.2-2.5s0.4-1.1,0.6-1.4s0.6-0.6,1.1-0.7c0.4-0.1,0.9-0.2,1.5-0.2
			h1.2v-0.9h-13.8v0.9h1.2c0.6,0,1.1,0.1,1.5,0.2s0.8,0.4,1.1,0.7s0.5,0.8,0.6,1.4s0.2,1.4,0.2,2.4v19h4.5L307,342.9L307,342.9z"/>
	</g>
	<text id="XMLID_75_" transform="matrix(1 0 0 1 204.5957 342.7949)" class="st5 st6 st7">th</text>
</g>
<g id="Layer_19" class="st0">
	<g id="XMLID_14_" class="st1">
		
			<linearGradient id="XMLID_26_" gradientUnits="userSpaceOnUse" x1="169.6" y1="513.65" x2="848.4" y2="513.65" gradientTransform="matrix(1 0 0 -1 0 1000)">
			<stop  offset="0" style="stop-color:#FFFFFF;stop-opacity:0"/>
			<stop  offset="7.349847e-003" style="stop-color:#FAF5F2;stop-opacity:1.273965e-002"/>
			<stop  offset="0.111" style="stop-color:#D7A799;stop-opacity:0.1924"/>
			<stop  offset="0.2083" style="stop-color:#BF7363;stop-opacity:0.3611"/>
			<stop  offset="0.2964" style="stop-color:#AE4F42;stop-opacity:0.5138"/>
			<stop  offset="0.3736" style="stop-color:#A2322C;stop-opacity:0.6476"/>
			<stop  offset="0.4369" style="stop-color:#9B1E21;stop-opacity:0.7574"/>
			<stop  offset="0.4785" style="stop-color:#99151E;stop-opacity:0.8294"/>
			<stop  offset="0.5434" style="stop-color:#AA1B2A;stop-opacity:0.8822"/>
			<stop  offset="0.6386" style="stop-color:#BF2139;stop-opacity:0.9597"/>
			<stop  offset="0.6882" style="stop-color:#C92440"/>
			<stop  offset="1" style="stop-color:#C92440;stop-opacity:0"/>
		</linearGradient>
		<path id="XMLID_11_" class="st8" d="M169.6,496.1l187.4-1.8l93.7-0.9l23.4-0.2c7.8-0.1,15.6-0.1,23.4-0.1L521,493h23.4h3.7l1,3.7
			l12.2,46.3l-12.7,0.3L576,379.1l9.1-54.8l8.9,54.9l37.6,232.6l-12.8-0.1l43-221.9l6.5-33.5l5.3,33.6l22.7,144l-7.8-0.4l10.1-37.4
			l0.9-3.2l3.3,0.1l22.2,0.4h1.5l1,0.8l19,15.9h-4.2l19.6-15.1l0.8-0.6h0.9l84.8,1.9v2l-84.8,1.9l1.8-0.6l-19,15.8l-2,1.7l-2.2-1.7
			l-19.7-15l2.5,0.9l-22.2,0.4l4.2-3.2l-10.7,37.2l-4.7,16.3l-3.1-16.7L661.9,392l11.8,0.1l-42,222.1l-6.5,34.2l-6.3-34.3
			l-42.8-231.7l18,0.1l-32.6,163.3l-6.6,33l-6.1-32.8l-8.8-47.1l4.7,3.7h-23.4l-23.4-0.1c-7.8,0-15.6,0-23.4-0.1l-23.4-0.2
			l-93.7-0.9L170,499.5v-3.4H169.6z"/>
	</g>
</g>
<g id="Layer_21" class="st0">
	<g id="XMLID_8_" class="st1">
		<path id="XMLID_68_" class="st2" d="M291.8,443.3c7-24.8,29.5-41.2,57.8-41.5c21.5-0.3,37.7,3.7,47.1,15.7
			c4.6,5.8,4.3,6.5,4.3,6.5h4.7l-3-38.5H397c-0.8,3.3-1.9,5.5-3.6,7.7c-1.7,2.1-4.1,1.7-6.7,1.7c-0.8,0-1.8-0.2-2.9-0.7
			c-1.2-0.5-2.6-1.2-4.2-2c-5.8-2.9-11.6-5.1-17.5-6.5s-11.8-2.1-17.7-2.1c-11.9,0-23,2.3-33.2,6.9s-19,10.9-26.5,18.8
			c-7.5,8-13.3,17.3-17.6,28c-4.2,10.7-6.4,22.3-6.4,34.7c0,5.1,0.4,10.1,1.1,14.8h28C289.8,486.5,285.6,465.3,291.8,443.3z"/>
		<path id="XMLID_52_" class="st2" d="M283.2,531.6c7.2,7.3,15.6,13.2,25.3,17.3c9.8,4.1,20.5,6.1,32.1,6.1
			c15.1,0,28.2-3.4,39.2-10.2c9.9-6.1,20.7-14.5,28.4-27v6h5.3l0.2-24.5h-6c0,0-0.2,5.3-6.2,12.5c-7.4,9-23.7,25.3-51.7,25.3
			c-33.4,0-54-23.3-59.9-50.5h-28C261.8,486.7,264.2,512.4,283.2,531.6z"/>
		<path id="XMLID_51_" class="st2" d="M454.9,472.5h36c5.4,0,9.6,0.4,12.7,1.2c7,1.8,10.2,6,11,9.1c0.3,1.2,0.6,3,0.9,4.5h5.7v-45.9
			h-4.4c-0.2,4.2-1.2,7.9-5.3,11.2c-2.2,1.7-4.5,3.4-7.8,4.3s-7.5,1.4-12.8,1.4h-36v-58.5H500c5.6,0,10.2,0.3,13.8,0.8
			s8.1,1.1,10.5,2.9c6.7,5.1,5.8,11.3,5.8,11.3h4.7V387H416.1v4.4h5.7c6.8,0,8.5,8.2,9,11.5s0.7,7.5,0.7,12.7v96.8h23.3L454.9,472.5
			L454.9,472.5z"/>
		<path id="XMLID_20_" class="st2" d="M431.6,522.2c0,8.1-0.8,13.3-1.5,16c-1,4.1-6.4,8.5-7.9,8.5h-5.7v4.5h111.8l11.6-29.6H535
			c-5.4,10.3-16.1,14.3-18.5,15s-5.1,1.2-8.3,1.5c-3.2,0.2-7.2,0.4-11.9,0.4h-27.8c-2.3,0-4.2-0.1-5.7-0.4c-1.5-0.2-2.7-0.6-3.6-1
			s-1.7-1-2.2-1.6s-1-1.3-1.2-2.1c-0.6-1.6-0.9-2.2-0.9-9.6v-19.3h-23.3V522.2z"/>
		<path id="XMLID_19_" class="st3" d="M601,550.3c-0.4,6.4-1.5,15.3-2.3,19c-0.9,3.7-8.8,9-14.1,9.1v5.7h44.2v-5.7
			c-4.7-0.7-5.1-0.4-7.5-8.8c-1-3.5-1.3-10.6-1-17l3.4-48h-19.3L601,550.3z"/>
		<path id="XMLID_18_" class="st3" d="M744.4,401.9h-10.5l3.8,84.6h14.6l-3.6-77.8c-0.2-0.7,0.5-9.2,1.2-10.9
			c0.6-1.7,2.2-3.5,4.7-5.5c1.6-1.3,3.1-2,4.5-2.3c1.3-0.3,0.2-0.6,3.4-0.9V384h-26.6l-38.2,102.5h14L744.4,401.9z"/>
		<path id="XMLID_17_" class="st3" d="M739.9,527.9c0.4,7-0.2,22.7-11.6,22.7v5.9h40.2v-5.9c-11.1,0-12.7-15.1-12.9-20.2l-1.2-26
			h-15.5L739.9,527.9z"/>
		<path id="XMLID_16_" class="st3" d="M628.6,407.3h-5.7l30.2,79.2h21.6L637,384h-41.6v5.1c3.3,0.2,3.2,0.5,5.1,0.7
			c1.9,0.3,4,1.2,6.6,2.7c2.4,1.9,3.1,8.1,3.1,8.6l-4.7,85.4h19.2L628.6,407.3z"/>
		<polygon id="XMLID_15_" class="st3" points="685.9,521 679.9,504.5 659.9,504.5 677.7,556.5 689.6,556.5 707.1,504.5 693.1,504.5 
					"/>
	</g>
	<g id="Layer_23" class="st1">
		<polygon id="XMLID_138_" class="st9" points="225.9,458.3 194.4,458.3 186.3,487 233.8,487 		"/>
		<path id="XMLID_139_" class="st9" d="M258.5,476c0,0-1.2,12.8-4.5,12.8c-0.4,0-1.2-0.6-1.2-0.6c-1.2-1.3-2.1-3.4-2.1-3.4
			l-12.3-40.2H224l7.7,25c2.7,9.7,3.5,18.3,3.4,17.4c-0.2,0.8-1.6,1.7-1.6,1.7H189c-0.6-0.3-1.2-0.6-1.3-1c0,0-3.9-7.2-0.9-16.9
			l8.5-26.3h-6.9l-6.4,19.2c-4.7,15.5-11.7,24.9-11.7,24.9H161v7.8h99.9V476H258.5z"/>
		<path id="XMLID_130_" class="st9" d="M209.3,398.1l9.3,30.4h14.8L217,376.1l22-68.5c2.6-8.5,4.6-14.1,5.8-16.6s2.8-4.7,4.9-6.5
			l8-0.1v-7.8h-94.9v17.8h2.1c0,0,1.4-9.9,2.9-9.9s4.6,0,4.6,0c1.9,1.3,8.1,20.6,10.9,29.8l22.3,72.3l-13.3,42h6.9L209.3,398.1z
			 M198.2,314.2c-1.2-3.5-1.3-3.7-1.3-6.5c0-3.5,3.2-13.7,5.4-15.1h26.3c2.2,1,3.3,11.2,3.3,14.9c0,2.1-0.6,5-1.8,8.6l-16.6,47.3
			L198.2,314.2z"/>
		<polygon id="XMLID_129_" class="st9" points="200.2,315.4 213.8,358 228.4,315.4 		"/>
	</g>
	<g id="Layer_25" class="st1">
		<polygon id="XMLID_148_" class="st10" points="232.5,458.8 204.6,458.8 196.5,487.5 240.4,487.5 		"/>
		<path id="XMLID_147_" class="st10" d="M265.6,476.7c0,0-1.2,12.8-4.5,12.8c-0.4,0-6.9-0.6-6.9-0.6c-1.2-1.3-2.1-3.4-2.1-3.4
			l-12.3-40.2H231l7.7,25c2.7,9.7,3.5,18.3,3.4,17.4c-0.2,0.8-1.6,1.7-1.6,1.7H196c-0.6-0.3-1.2-0.6-1.3-1c0,0,0.9-7.2,3.9-16.9
			l8.4-26.3h-11.6l-6.4,19.2c-4.7,15.5-11.7,24.9-11.7,24.9h-9.2v7.8H268v-20.5h-2.4V476.7z"/>
		<path id="XMLID_142_" class="st10" d="M219.3,407.8l6.6,21.4h8.9l-10.9-35.6l27.6-84.3c2.6-8.5,4.6-14.7,5.8-17.2s2.7-5.1,4.7-6.9
			l4.6-0.1v-7.8h-96.5V295h2.1c0,0,1.4-9.9,2.9-9.9s4.6,0,4.6,0c1.9,1.3,8.1,20.6,10.9,29.8l22.3,72.3l-13.3,42h12.6L219.3,407.8z
			 M198.1,309.3c-0.4-15.3,8.6-15.8,11.3-16h26.3c2.2,1,3.3,11.2,3.3,14.9c0,2.1-0.6,5-1.8,8.6L217.6,373
			C217.5,373.1,198.2,312.1,198.1,309.3z"/>
		<polygon id="XMLID_141_" class="st10" points="204.4,322.3 218,364.9 232.6,322.3 		"/>
	</g>
	<g id="XMLID_134_" class="st1">
		<path id="XMLID_137_" class="st9" d="M228.9,302.2c0-8.4,2.2-14.4,6.7-18c3.4-2.7,11.4-4.3,17-4.3c1.5,0,3.2,8.8,3.2,8.8h4.5v-18
			l-86,0.1v17.9h5.4c0,0,1.5-8.6,2.4-8.7c3.8-0.5,14.1,1.2,17.5,3.7c4.5,3.3,6.8,9.5,6.8,18.5v125.2h22.3V302.2H228.9z"/>
		<path id="XMLID_135_" class="st9" d="M206.6,445.5V466c0,8.5-2.3,14.6-6.8,18.2c-3.3,2.6-10.3,4-16.4,4.6
			c-1.8,0.2-2.7-7.5-2.7-7.5h-6.2v14.5h86.3v-14.6c-0.8,0-4.9,0-4.9,0s-1.2,8.1-3.1,7.9c-6.3-0.7-12.7-2.1-16.6-5.1
			c-4.8-3.8-7.2-9.8-7.2-18.1v-20.5h-22.4V445.5z"/>
	</g>
</g>
<g id="Layer_22" class="st0">
	<g id="XMLID_65_" class="st1">
		<path id="XMLID_154_" class="st2" d="M279.5,499c0-13.5,1.4-25.2,4.3-35.3c2.9-10.1,6.9-18.4,11.9-25c5.1-6.6,11.1-11.5,18-14.8
			s14.5-4.9,22.6-4.9c6.6,0,12.8,0.9,18.5,2.6s10.8,4.4,15.5,8.2c4.7,3.8,8.9,8.6,12.5,14.6s6.8,13.2,9.4,21.7h3.7l-3.7-55.8H388
			c-0.8,3.3-2,6.1-3.7,8.2s-3.9,3.2-6.5,3.2c-0.8,0-1.8-0.2-2.9-0.7c-1.2-0.5-2.6-1.2-4.2-2c-5.8-2.9-11.6-5.1-17.5-6.5
			s-11.8-2.1-17.7-2.1c-11.9,0-23,2.3-33.2,6.9s-19,10.9-26.5,18.8c-7.5,8-13.3,17.3-17.6,28c-4.2,10.7-6.4,22.3-6.4,34.7
			c0,5.1,0.4,10.1,1.1,14.8h27.5C279.8,509.1,279.5,504.2,279.5,499z"/>
		<path id="XMLID_153_" class="st2" d="M257.7,532.4c4,10.2,9.5,18.9,16.6,26.4c7.1,7.4,15.6,13.2,25.3,17.3
			c9.8,4.1,20.5,6.1,32.1,6.1c15.1,0,28.2-3.4,39.2-10.2s20.6-17.5,28.8-32.1l-3.8-2.5c-5,6.8-9.6,12.4-13.9,16.8
			c-4.3,4.4-8.6,7.9-12.9,10.5s-8.7,4.4-13.3,5.3c-4.6,1-9.6,1.5-14.9,1.5c-9.5,0-18-1.6-25.6-4.8s-14-7.9-19.3-14.1
			c-4.9-5.7-8.8-12.7-11.6-20.8h-26.9C257.6,531.9,257.6,532.2,257.7,532.4z"/>
		<path id="XMLID_152_" class="st2" d="M446,496.8h36c5.4,0,9.6,0.4,12.7,1.2c3.1,0.8,5.5,2.2,7.3,4.1c1.7,1.9,3,4.4,3.7,7.5
			c0.3,1.2,0.6,2.6,0.9,4h5.7v-49.5H508c-0.2,4.2-0.7,7.8-1.4,10.8c-0.7,3-2.1,5.4-4,7.4s-4.5,3.4-7.8,4.3s-7.5,1.4-12.8,1.4h-36
			v-64.9h45.1c5.6,0,10.2,0.3,13.8,0.8c3.6,0.5,6.6,1.8,8.9,3.7c2.3,1.9,4.1,4.6,5.4,8.2c1.3,3.6,2.6,8.3,3.7,14.3h2.9v-35.9H399.3
			v4.4h5.7c6.8,0,11.7,1.6,14.6,4.8c1.1,1.2,1.9,3.4,2.3,6.7c0.5,3.3,0.7,7.5,0.7,12.7v70.9H446V496.8z"/>
		<path id="XMLID_151_" class="st2" d="M422.7,549.4c0,8.1-0.5,13.4-1.5,16c-0.6,1.5-1.5,2.7-2.6,3.8c-1.2,1.1-2.5,2-4,2.6
			c-1.5,0.7-3.1,1.2-4.8,1.5c-1.7,0.3-3.3,0.5-4.9,0.5h-5.7v4.5h126.6l14.2-41.1h-4.8c-5.4,10.3-10.5,17.9-15.4,22.5
			c-2.1,2-4,3.7-5.9,4.9c-1.9,1.2-4,2.2-6.3,2.9s-5.1,1.2-8.3,1.5c-3.2,0.2-7.2,0.4-11.9,0.4h-27.8c-2.3,0-4.2-0.1-5.7-0.4
			c-1.5-0.2-2.7-0.6-3.6-1s-1.7-1-2.2-1.6s-1-1.3-1.2-2.1c-0.6-1.6-0.9-6-0.9-13.3v-19.3h-23.3L422.7,549.4L422.7,549.4z"/>
		<path id="XMLID_150_" class="st2" d="M592.4,577.5c-0.4,6.4-1.5,15.3-2.3,19c-0.9,3.7-7,9-12.2,9.1v5.7h41.3v-5.7
			c-4.7-0.7-5.4-1.9-7.7-3.4c-2.4-1.5-4.1-4-5.2-7.6c-1.1-3.5-1.5-8.5-1.2-14.9l3.4-48h-12.7L592.4,577.5z"/>
		<path id="XMLID_77_" class="st2" d="M732.6,429.1h-10.5l3.8,84.6H745l-3.6-77.8c-0.2-0.7,0.5-9.2,1.2-10.9
			c0.6-1.7,2.2-3.5,4.7-5.5c1.6-1.3,3.1-2,4.5-2.3c1.3-0.3,3.6-0.6,6.7-0.9v-5.1H724l-38.2,102.5h14L732.6,429.1z"/>
		<path id="XMLID_74_" class="st2" d="M728,555.1c0.4,7-0.7,12.1-3.1,15.4c-2.5,3.3-5.3,6.6-12.3,7.3v5.9h53.1v-5.9
			c-7.7-0.1-12.7-3.2-15-6.9s-3.5-8.1-3.7-13.2l-1.2-26H727L728,555.1z"/>
		<path id="XMLID_72_" class="st2" d="M613.1,434.5H611l30.2,79.2h21.6l-37.6-102.5h-41.6v5.1c3.3,0.2,5.9,0.5,7.8,0.7
			c1.9,0.3,4,1.2,6.6,2.7c2.4,1.9,3.1,8.1,3.1,8.6l-4.7,85.4h12.8L613.1,434.5z"/>
		<polygon id="XMLID_71_" class="st2" points="674.1,548.2 668,531.7 648,531.7 665.8,583.7 677.7,583.7 695.2,531.7 681.2,531.7 		
			"/>
	</g>
	<polygon id="XMLID_64_" class="st11" points="223,550.3 189.8,550.3 182.3,575.9 228.6,575.9 	"/>
	<path id="XMLID_57_" class="st11" d="M245.1,565c0,0-0.3,9.8-2.9,9.8c-0.4,0-1.4-0.2-1.4-0.2c-0.6-0.8-1.1-1.8-1.6-3
		c-1.1-2.7-10.3-31.8-10.3-31.8h-10.5l6.3,20.1c1.4,5.6,2,9.3,2,11.3c0,0.8-0.1,1.6-0.2,2.2c0,0-0.5,1.4-0.8,1.9h-37.5
		c-0.7-1-0.9-4.3-0.9-4.3l0,0c0-2.8,0.6-6.4,1.7-10.7l5.4-20.5h-8.8L176,571c0,0.2-2,3.8-3,4.2h-8.5v6.2H247V565H245.1z"/>
	<path id="XMLID_54_" class="st11" d="M206.5,501.7l14.1,45.3h10.5l-19.3-62.2l17.4-55.4c2.1-6.9,3.7-11.3,4.6-13.4
		c0.9-2,2.3-3.8,4-5.2h6.5v-6.3h-76.4v14.3h1.7c0,0,1.1-8,2.4-8s3.7,0,3.7,0c1.5,1,2.8,2.5,3.7,4.4c1,2,2.6,6.7,4.8,14.1l17.9,58.2
		L184,544.7h9L206.5,501.7z M193.6,437.1c-0.9-2.8-1.4-5.4-1.4-7.6c0-2.8,0.9-11.1,2.6-12.2h25.9c1.7,0.8,2.6,9,2.6,12
		c0,1.7-0.5,4-1.5,6.9l-14.5,41.2L193.6,437.1z"/>
	<polygon id="XMLID_53_" class="st11" points="196.1,446.4 207.3,481.6 219.4,446.4 	"/>
	<g id="XMLID_33_" class="st1">
		<path id="XMLID_50_" class="st12" d="M189.3,385.9h4.3v-3.3h-4.3v-0.4h-3.9v0.4h-11.1l0.3-0.4h-2.1l-0.5,0.7v3h13.5v1.2
			c1.3,0,2.6,0,3.9,0L189.3,385.9L189.3,385.9z"/>
		<rect id="XMLID_49_" x="185.5" y="390.6" class="st12" width="3.9" height="3.7"/>
		<polygon id="XMLID_48_" class="st12" points="185.5,366.8 185.5,382.5 189.3,382.5 189.3,361.9 186.8,361.9 172,382.9 
			174.1,382.9 		"/>
		<path id="XMLID_47_" class="st12" d="M229.1,385.1v-2.9h-4.5v2.9c0,0.5,0,1.7,0,2.1c1.5,0,3,0,4.5,0
			C229.1,386.8,229.1,385.6,229.1,385.1z"/>
		<path id="XMLID_46_" class="st12" d="M232.5,393.5c-0.8,0-1.5-0.2-2.1-0.5c-0.3-0.2-0.5-0.3-0.7-0.5s-0.3-0.4-0.4-0.7
			c-0.1-0.3-0.2-0.7-0.2-1.1c0-0.2,0,0.2,0,0c-1.5,0-3,0-4.5,0c-0.1,1.1-0.2,1.3-0.5,1.7c-0.6,0.8-1.5,1.1-2.9,1.1h-1.1v0.9h13.6
			v-0.9H232.5z"/>
		<path id="XMLID_45_" class="st12" d="M252.3,393.1c-0.7-0.2-1.3-0.5-2.1-0.9c-0.6-0.3-1.9-1.2-2.6-1.7c-2.5,0-4,0-6.5,0
			c0.1,0.2,0.6,0.7,0.6,0.9c0,0.1,0,0.3,0,0.5c0,0.4-0.2,0.7-0.6,1c-0.4,0.3-1,0.5-2,0.5v0.9h15.1v-0.9
			C253.7,393.4,253,393.3,252.3,393.1z"/>
		<path id="XMLID_44_" class="st12" d="M229.1,378.4l8.9,8.7h6.3l-10.6-10.5l4.9-4.8c1.4-1.4,2.5-2.6,3.3-3.4s1.3-1.3,1.4-1.4
			c0.9-0.8,1.7-1.5,2.4-2s1.2-0.8,1.7-1.1c0.5-0.2,1-0.4,1.4-0.5s0.9-0.1,1.4-0.2v-0.9h-11.7v0.9h0.7c0.8,0,1.4,0.1,1.7,0.4
			s0.5,0.6,0.5,1s-0.2,0.8-0.5,1.3s-0.8,1.2-1.5,1.9c-0.7,0.8-1.6,1.7-2.8,2.9c-1.2,1.1-2.6,2.5-4.3,4l-3.2,3V368
			c0-1.6,0.1-2.6,0.3-3.1c0.2-0.6,0.7-1,1.3-1.3s1.2-0.4,1.8-0.4h1.1v-0.9H220v0.9h1.1c0.7,0,1.5,0.2,2.2,0.6
			c0.3,0.2,0.5,0.4,0.7,0.5c0.2,0.2,0.3,0.4,0.4,0.7c0.1,0.3,0.1,0.7,0.2,1.1c0,0.5,0,1.1,0,1.8V382h4.5L229.1,378.4L229.1,378.4z"
			/>
		<path id="XMLID_43_" class="st12" d="M263.8,378.4l8.8,8.7h6.3l-10.6-10.5l4.9-4.8c1.4-1.4,2.5-2.6,3.3-3.4s1.3-1.3,1.4-1.4
			c0.9-0.8,1.7-1.5,2.4-2c0.7-0.5,1.2-0.8,1.7-1.1c0.5-0.2,1-0.4,1.4-0.5s0.9-0.1,1.4-0.2v-0.9h-11.7v0.9h0.7c0.8,0,1.4,0.1,1.7,0.4
			c0.3,0.3,0.5,0.6,0.5,1s-0.2,0.8-0.5,1.3s-0.8,1.2-1.5,1.9c-0.7,0.8-1.6,1.7-2.8,2.9c-1.2,1.1-2.6,2.5-4.3,4l-3.2,3V368
			c0-1.6,0.1-2.6,0.3-3.1c0.2-0.6,0.7-1,1.3-1.3c0.6-0.3,1.2-0.4,1.8-0.4h1.1v-0.9h-13.6v0.9h1.1c0.7,0,1.5,0.2,2.2,0.6
			c0.3,0.2,0.5,0.4,0.7,0.5c0.2,0.2,0.3,0.4,0.4,0.7c0.1,0.3,0.1,0.7,0.2,1.1c0,0.5,0,1.1,0,1.8v19h4.5v-8.5H263.8z"/>
		<path id="XMLID_42_" class="st12" d="M287,393.1c-0.7-0.2-1.3-0.5-2.1-0.9c-0.7-0.4-1.5-0.9-2.3-1.5l-0.2-0.2c0,0-4.3,0-6.5,0
			c0.1,0.1,0.1,0.2,0.2,0.4c0.1,0.2,0.2,0.3,0.2,0.5c0,0.1,0,0.3,0,0.5c0,0.4-0.2,0.7-0.6,1s-1,0.5-2,0.5v0.9h15.1v-0.9
			C288.4,393.4,287.7,393.3,287,393.1z"/>
		<path id="XMLID_41_" class="st12" d="M267.2,393.5c-0.8,0-1.5-0.2-2.1-0.5c-0.3-0.2-0.5-0.3-0.7-0.5s-0.3-0.4-0.4-0.7
			c-0.1-0.2-0.1-0.9-0.1-1.1c-1.6,0-3.1,0-4.7,0c-0.1,0.6-0.2,1.5-0.4,1.7c-0.6,0.8-1.5,1.1-2.9,1.1h-1.1v0.9h13.6v-0.9H267.2z"/>
		<path id="XMLID_40_" class="st12" d="M318.8,365c0.7-1.1,1.6-1.6,2.9-1.6h1.2v-0.9h-11.3v0.9h1.2c1.2,0,2.1,0.4,2.7,1
			c0.4,0.5,0.7,1.7,0.7,3.7v19h2.1v-18.8C318.3,366.6,318.4,365.5,318.8,365z"/>
		<path id="XMLID_39_" class="st12" d="M314.6,390.9c-1,1-2.6,1.5-3.1,1.6c-1.5,0.5-3.1,0.8-4.8,0.8c-2.2,0-3.9-0.4-5.1-1.1
			c-0.7-0.4-1.5-0.8-2.1-1.7c-1.7,0-3.7,0-5.4,0c0,0.1,1.1,1.6,2.1,2.5c1.1,0.8,2.4,1.5,4.1,2c1.6,0.5,3.7,0.7,6,0.7
			c0.9,0,1.9,0,2.8-0.1s1.9-0.3,2.8-0.6c0.9-0.3,1.8-0.6,2.6-1.1c0.9-0.5,1.8-1,2.4-1.9c0.6-0.8,0.6-0.7,1.1-1.5c-1,0-2.1,0-3.1,0
			C314.8,390.6,314.7,390.8,314.6,390.9z"/>
		<path id="XMLID_37_" class="st12" d="M298,368.1c0-1,0.1-1.8,0.2-2.5s0.4-1.1,0.6-1.4s0.6-0.6,1.1-0.7c0.4-0.1,0.9-0.2,1.5-0.2
			h1.2v-0.9h-13.8v0.9h1.2c0.6,0,1.1,0.1,1.5,0.2s0.8,0.4,1.1,0.7s0.5,0.8,0.6,1.4s0.2,1.4,0.2,2.4v19h4.5L298,368.1L298,368.1z"/>
	</g>
	<text id="XMLID_32_" transform="matrix(1 0 0 1 195.5941 368.0624)" class="st11 st6 st7">th</text>
	<g id="XMLID_25_" class="st1">
		
			<linearGradient id="XMLID_36_" gradientUnits="userSpaceOnUse" x1="160.6" y1="488.4499" x2="839.3" y2="488.4499" gradientTransform="matrix(1 0 0 -1 0 1000)">
			<stop  offset="0" style="stop-color:#FFFFFF;stop-opacity:0"/>
			<stop  offset="6.796869e-002" style="stop-color:#FCE5CF;stop-opacity:0.1178"/>
			<stop  offset="0.1756" style="stop-color:#F8C698;stop-opacity:0.3044"/>
			<stop  offset="0.2744" style="stop-color:#F4AE72;stop-opacity:0.4756"/>
			<stop  offset="0.3609" style="stop-color:#F19E56;stop-opacity:0.6256"/>
			<stop  offset="0.4319" style="stop-color:#EF9444;stop-opacity:0.7486"/>
			<stop  offset="0.4785" style="stop-color:#EF913E;stop-opacity:0.8294"/>
			<stop  offset="0.6048" style="stop-color:#D55640;stop-opacity:0.9322"/>
			<stop  offset="0.6882" style="stop-color:#C92440"/>
			<stop  offset="1" style="stop-color:#C92440;stop-opacity:0"/>
		</linearGradient>
		<path id="XMLID_166_" class="st13" d="M160.6,521.3l187.4-1.8l93.7-0.9l23.4-0.2c7.8-0.1,15.6-0.1,23.4-0.1l23.4-0.1h23.4h3.7
			l1,3.7l12.2,46.3l-12.7,0.3l27.4-164.2l9.1-54.8l8.9,54.9L622.5,637l-12.8-0.1l43-221.9l6.5-33.5l5.3,33.6l22.7,144l-7.8-0.4
			l10.1-37.4l0.9-3.2l3.3,0.1l22.2,0.4h1.5l1,0.8l19,15.9h-4.2l19.6-15.1l0.8-0.6h0.9l84.8,1.9v2l-84.8,1.9l1.8-0.6l-19,15.8l-2,1.7
			l-2.2-1.7l-19.7-15l2.5,0.9l-22.2,0.4l4.2-3.2l-10.7,37.2l-4.7,16.3l-3.1-16.7l-26.6-143.3l11.8,0.1l-42,222.1l-6.5,34.2
			l-6.3-34.3L567,407.6l18,0.1L552.4,571l-6.6,33l-6.1-32.8l-8.8-47.1l4.7,3.7h-23.4l-23.4-0.1c-7.8,0-15.6,0-23.4-0.1l-23.4-0.2
			l-93.7-0.9l-187.4-1.8v-3.4H160.6z"/>
	</g>
	<g id="XMLID_1_" class="st1">
		<path id="XMLID_24_" class="st12" d="M282.8,468.5c7-24.8,29.5-41.2,57.8-41.5c21.5-0.3,37.7,3.7,47.1,15.7
			c4.6,5.8,4.3,6.5,4.3,6.5h4.7l-3-38.5H388c-0.8,3.3-1.9,5.5-3.6,7.7c-1.7,2.1-4.1,1.7-6.7,1.7c-0.8,0-1.8-0.2-2.9-0.7
			c-1.2-0.5-2.6-1.2-4.2-2c-5.8-2.9-11.6-5.1-17.5-6.5s-11.8-2.1-17.7-2.1c-11.9,0-23,2.3-33.2,6.9s-19,10.9-26.5,18.8
			c-7.5,8-13.3,17.3-17.6,28c-4.2,10.7-6.4,22.3-6.4,34.7c0,5.1,0.4,10.1,1.1,14.8h28C280.7,511.8,276.6,490.6,282.8,468.5z"/>
		<path id="XMLID_22_" class="st12" d="M274.2,556.8c7.2,7.3,15.6,13.2,25.3,17.3c9.8,4.1,20.5,6.1,32.1,6.1
			c15.1,0,28.2-3.4,39.2-10.2c9.9-6.1,20.7-14.5,28.4-27v6h5.3l0.2-24.5h-6c0,0-0.2,5.3-6.2,12.5c-7.4,9-23.7,25.3-51.7,25.3
			c-33.4,0-54-23.3-59.9-50.5h-28C252.8,512,255.2,537.7,274.2,556.8z"/>
		<path id="XMLID_21_" class="st12" d="M445.9,497.8h36c5.4,0,9.6,0.4,12.7,1.2c7,1.8,10.2,6,11,9.1c0.3,1.2,0.6,3,0.9,4.5h5.7
			v-45.9h-4.4c-0.2,4.2-1.2,7.9-5.3,11.2c-2.2,1.7-4.5,3.4-7.8,4.3s-7.5,1.4-12.8,1.4h-36v-58.5H491c5.6,0,10.2,0.3,13.8,0.8
			c3.6,0.5,8.1,1.1,10.5,2.9c6.7,5.1,5.8,11.3,5.8,11.3h4.7v-27.8H407.1v4.4h5.7c6.8,0,8.5,8.2,9,11.5s0.7,7.5,0.7,12.7v96.8h23.3
			L445.9,497.8L445.9,497.8z"/>
		<path id="XMLID_12_" class="st12" d="M422.6,547.5c0,8.1-0.8,13.3-1.5,16c-1,4.1-6.4,8.5-7.9,8.5h-5.7v4.5h111.8l11.6-29.6H526
			c-5.4,10.3-16.1,14.3-18.5,15s-5.1,1.2-8.3,1.5c-3.2,0.2-7.2,0.4-11.9,0.4h-27.8c-2.3,0-4.2-0.1-5.7-0.4c-1.5-0.2-2.7-0.6-3.6-1
			s-1.7-1-2.2-1.6s-1-1.3-1.2-2.1c-0.6-1.6-0.9-2.2-0.9-9.6v-19.3h-23.3V547.5z"/>
		<path id="XMLID_9_" class="st14" d="M592,575.6c-0.4,6.4-1.5,15.3-2.3,19c-0.9,3.7-8.8,9-14.1,9.1v5.7h44.2v-5.7
			c-4.7-0.7-5.1-0.4-7.5-8.8c-1-3.5-1.3-10.6-1-17l3.4-48h-19.3L592,575.6z"/>
		<path id="XMLID_7_" class="st14" d="M735.4,427.2h-10.5l3.8,84.6h14.6l-3.6-77.8c-0.2-0.7,0.5-9.2,1.2-10.9
			c0.6-1.7,2.2-3.5,4.7-5.5c1.6-1.3,3.1-2,4.5-2.3c1.3-0.3,0.2-0.6,3.4-0.9v-5.1h-26.6l-38.2,102.5h14L735.4,427.2z"/>
		<path id="XMLID_4_" class="st14" d="M730.9,553.2c0.4,7-0.2,22.7-11.6,22.7v5.9h40.2v-5.9c-11.1,0-12.7-15.1-12.9-20.2l-1.2-26
			h-15.5L730.9,553.2z"/>
		<path id="XMLID_3_" class="st14" d="M619.6,432.6h-5.7l30.2,79.2h21.6L628,409.3h-41.6v5.1c3.3,0.2,3.2,0.5,5.1,0.7
			c1.9,0.3,4,1.2,6.6,2.7c2.4,1.9,3.1,8.1,3.1,8.6l-4.7,85.4h19.2L619.6,432.6z"/>
		<polygon id="XMLID_2_" class="st14" points="676.9,546.3 670.9,529.8 650.9,529.8 668.6,581.8 680.6,581.8 698.1,529.8 
			684.1,529.8 		"/>
	</g>
</g>
<g id="Layer_20" class="st0">
</g>
<g id="Layer_14" class="st0">
</g>
<g id="Layer_13" class="st0">
</g>
<g id="Layer_10" class="st0">
</g>
<g id="Layer_12">
	<polygon id="XMLID_149_" class="st15" points="230,524.9 196.8,524.9 189.3,550.6 235.6,550.6 	"/>
	<path id="XMLID_145_" class="st15" d="M252.1,539.6c0,0-0.3,9.8-2.9,9.8c-0.4,0-1.4-0.2-1.4-0.2c-0.6-0.8-1.1-1.8-1.6-3
		c-1.1-2.7-10.3-31.8-10.3-31.8h-10.5l6.3,20.1c1.4,5.6,2,9.3,2,11.3c0,0.8-0.1,1.6-0.2,2.2c0,0-0.3,1.2-0.6,1.7l-37.7,0.3
		c-0.7-1-0.9-4.3-0.9-4.3l0,0c0-2.8,0.6-6.4,1.7-10.7l5.4-20.5h-8.8l-9.5,31.3c0,0.2-2,3.8-3,4.2h-8.5v6.2H254v-16.5L252.1,539.6
		L252.1,539.6z"/>
	<path id="XMLID_124_" class="st15" d="M213.5,476.3l14.1,45.3h10.5l-19.3-62.2l17.4-55.4c2.1-6.9,3.7-11.3,4.6-13.4
		c0.9-2,2.3-3.8,4-5.2h6.5v-6.3h-76.4v14.3h1.7c0,0,1.1-8,2.4-8c1.2,0,3.7,0,3.7,0c1.5,1,2.8,2.5,3.7,4.4c1,2,2.6,6.7,4.8,14.1
		l17.9,58.2L191,519.4h9L213.5,476.3z M200.6,411.8c-0.9-2.8-1.4-5.4-1.4-7.6c0-2.8,0.9-11.1,2.6-12.2h25.9c1.7,0.8,2.6,9,2.6,12
		c0,1.7-0.5,4-1.5,6.9l-14.5,41.2L200.6,411.8z"/>
	<polygon id="XMLID_123_" class="st15" points="203.1,421.1 214.3,456.3 226.4,421.1 	"/>
	<g id="XMLID_86_">
		<path id="XMLID_122_" class="st15" d="M196.3,360.6h4.3v-3.3h-4.3v-0.4h-3.9v0.4h-11.1l0.3-0.4h-2.1l-0.5,0.7v3h13.5v1.2
			c1.3,0,2.6,0,3.9,0L196.3,360.6L196.3,360.6z"/>
		<rect id="XMLID_121_" x="192.5" y="365.2" class="st15" width="3.9" height="3.7"/>
		<polygon id="XMLID_120_" class="st15" points="192.5,341.5 192.5,357.1 196.3,357.1 196.3,336.5 193.8,336.5 179,357.6 
			181.1,357.6 		"/>
		<path id="XMLID_119_" class="st15" d="M236.1,359.7v-2.9h-4.5v2.9c0,0.5,0,1.7,0,2.1c1.5,0,3,0,4.5,0
			C236.1,361.4,236.1,360.2,236.1,359.7z"/>
		<path id="XMLID_118_" class="st15" d="M239.5,368.1c-0.8,0-1.5-0.2-2.1-0.5c-0.3-0.2-0.5-0.3-0.7-0.5s-0.3-0.4-0.4-0.7
			c-0.1-0.3-0.2-0.7-0.2-1.1c0-0.2,0,0.2,0,0c-1.5,0-3,0-4.5,0c-0.1,1.1-0.2,1.3-0.5,1.7c-0.6,0.8-1.5,1.1-2.9,1.1h-1.1v0.9h13.6
			v-0.9H239.5z"/>
		<path id="XMLID_117_" class="st15" d="M259.3,367.8c-0.7-0.2-1.3-0.5-2.1-0.9c-0.6-0.3-1.9-1.2-2.6-1.7c-2.5,0-4,0-6.5,0
			c0.1,0.2,0.6,0.7,0.6,0.9c0,0.1,0,0.3,0,0.5c0,0.4-0.2,0.7-0.6,1c-0.4,0.3-1,0.5-2,0.5v0.9h15.1v-0.9
			C260.7,368.1,260,368,259.3,367.8z"/>
		<path id="XMLID_116_" class="st15" d="M236.1,353.1l8.9,8.7h6.3l-10.6-10.5l4.9-4.8c1.4-1.4,2.5-2.6,3.3-3.4s1.3-1.3,1.4-1.4
			c0.9-0.8,1.7-1.5,2.4-2s1.2-0.8,1.7-1.1c0.5-0.2,1-0.4,1.4-0.5c0.4-0.1,0.9-0.1,1.4-0.2V337h-11.7v0.9h0.7c0.8,0,1.4,0.1,1.7,0.4
			s0.5,0.6,0.5,1s-0.2,0.8-0.5,1.3s-0.8,1.2-1.5,1.9c-0.7,0.8-1.6,1.7-2.8,2.9c-1.2,1.1-2.6,2.5-4.3,4l-3.2,3v-9.7
			c0-1.6,0.1-2.6,0.3-3.1c0.2-0.6,0.7-1,1.3-1.3s1.2-0.4,1.8-0.4h1.1V337H227v0.9h1.1c0.7,0,1.5,0.2,2.2,0.6
			c0.3,0.2,0.5,0.4,0.7,0.5c0.2,0.2,0.3,0.4,0.4,0.7c0.1,0.3,0.1,0.7,0.2,1.1c0,0.5,0,1.1,0,1.8v14.1h4.5L236.1,353.1L236.1,353.1z"
			/>
		<path id="XMLID_115_" class="st15" d="M270.8,353.1l8.8,8.7h6.3l-10.6-10.5l4.9-4.8c1.4-1.4,2.5-2.6,3.3-3.4s1.3-1.3,1.4-1.4
			c0.9-0.8,1.7-1.5,2.4-2c0.7-0.5,1.2-0.8,1.7-1.1c0.5-0.2,1-0.4,1.4-0.5s0.9-0.1,1.4-0.2V337h-11.7v0.9h0.7c0.8,0,1.4,0.1,1.7,0.4
			c0.3,0.3,0.5,0.6,0.5,1s-0.2,0.8-0.5,1.3s-0.8,1.2-1.5,1.9c-0.7,0.8-1.6,1.7-2.8,2.9c-1.2,1.1-2.6,2.5-4.3,4l-3.2,3v-9.7
			c0-1.6,0.1-2.6,0.3-3.1c0.2-0.6,0.7-1,1.3-1.3c0.6-0.3,1.2-0.4,1.8-0.4h1.1V337h-13.6v0.9h1.1c0.7,0,1.5,0.2,2.2,0.6
			c0.3,0.2,0.5,0.4,0.7,0.5c0.2,0.2,0.3,0.4,0.4,0.7c0.1,0.3,0.1,0.7,0.2,1.1c0,0.5,0,1.1,0,1.8v19h4.5v-8.5H270.8z"/>
		<path id="XMLID_114_" class="st15" d="M294,367.8c-0.7-0.2-1.3-0.5-2.1-0.9c-0.7-0.4-1.5-0.9-2.3-1.5l-0.2-0.2c0,0-4.3,0-6.5,0
			c0.1,0.1,0.1,0.2,0.2,0.4c0.1,0.2,0.2,0.3,0.2,0.5c0,0.1,0,0.3,0,0.5c0,0.4-0.2,0.7-0.6,1s-1,0.5-2,0.5v0.9h15.1v-0.9
			C295.4,368.1,294.7,368,294,367.8z"/>
		<path id="XMLID_106_" class="st15" d="M274.2,368.1c-0.8,0-1.5-0.2-2.1-0.5c-0.3-0.2-0.5-0.3-0.7-0.5s-0.3-0.4-0.4-0.7
			c-0.1-0.2-0.1-0.9-0.1-1.1c-1.6,0-3.1,0-4.7,0c-0.1,0.6-0.2,1.5-0.4,1.7c-0.6,0.8-1.5,1.1-2.9,1.1h-1.1v0.9h13.6v-0.9H274.2z"/>
		<path id="XMLID_104_" class="st15" d="M325.8,339.6c0.7-1.1,1.6-1.6,2.9-1.6h1.2v-0.9h-11.3v0.9h1.2c1.2,0,2.1,0.4,2.7,1
			c0.4,0.5,0.7,1.7,0.7,3.7v19h2.1V343C325.3,341.2,325.4,340.1,325.8,339.6z"/>
		<path id="XMLID_103_" class="st15" d="M321.6,365.5c-1,1-2.6,1.5-3.1,1.6c-1.5,0.5-3.1,0.8-4.8,0.8c-2.2,0-3.9-0.4-5.1-1.1
			c-0.7-0.4-1.5-0.8-2.1-1.7c-1.7,0-3.7,0-5.4,0c0,0.1,1.1,1.6,2.1,2.5c1.1,0.8,2.4,1.5,4.1,2c1.6,0.5,3.7,0.7,6,0.7
			c0.9,0,1.9,0,2.8-0.1s1.9-0.3,2.8-0.6c0.9-0.3,1.8-0.6,2.6-1.1c0.9-0.5,1.8-1,2.4-1.9c0.6-0.8,0.6-0.7,1.1-1.5c-1,0-2.1,0-3.1,0
			C321.8,365.3,321.7,365.4,321.6,365.5z"/>
		<path id="XMLID_87_" class="st15" d="M305,342.8c0-1,0.1-1.8,0.2-2.5s0.4-1.1,0.6-1.4s0.6-0.6,1.1-0.7c0.4-0.1,0.9-0.2,1.5-0.2
			h1.2v-0.9h-13.8v0.9h1.2c0.6,0,1.1,0.1,1.5,0.2s0.8,0.4,1.1,0.7s0.5,0.8,0.6,1.4s0.2,1.4,0.2,2.4v19h4.5L305,342.8L305,342.8z"/>
	</g>
	<text id="XMLID_82_" transform="matrix(1 0 0 1 202.5957 342.7055)" class="st15 st6 st7">th</text>
	<g id="XMLID_31_">
		<path id="XMLID_168_" class="st15" d="M543,493.3l6.5,25.1l1.6,6.3l1.7,6.3c0.3,1,0.6,2.1,0.9,3.1l0.9,3.1
			c0.6,2.1,1.2,4.2,1.8,6.2l-9.2,0.3l25.6-164.6l8.8-56.7l9.2,56.8l37.6,232.6l-12.8-0.1l43-221.9l6.5-33.5l5.3,33.6l22.7,144
			l-7.8-0.4l10.1-37.4l0.9-3.2l3.3,0.1l22.2,0.4h1.5l1,0.8l19,15.9h-4.2l19.6-15.1l0.8-0.6h0.9l84.8,1.9v2l-84.8,1.9l1.8-0.6
			l-19,15.8l-2,1.7l-2.2-1.7l-19.7-15l2.5,0.9l-22.2,0.4l4.2-3.2L693,535.7l-4.7,16.3l-3.1-16.7L658.6,392l11.8,0.1l-42,222.1
			l-6.5,34.2l-6.3-34.3l-42.8-231.7l18,0.1l-34.4,163l-4.5,21.5l-4.6-21.3c-0.5-2.1-0.9-4.2-1.3-6.4l-0.6-3.2
			c-0.2-1.1-0.4-2.1-0.7-3.2l-1.4-6.3l-1.5-6.3l-5.9-25.3L543,493.3z"/>
	</g>
	<g id="XMLID_73_">
		<path id="XMLID_161_" class="st15" d="M167.6,496c0,0,5.9-0.1,16.1-0.4c5.1-0.1,11.4-0.2,18.5-0.4c7.1-0.1,15.2-0.2,24-0.4
			c8.8-0.2,18.3-0.2,28.4-0.3c10.1-0.1,20.7-0.2,31.7-0.3c22-0.1,45.5-0.2,68.9-0.3c46.9-0.1,93.9-0.2,129.1-0.3
			c8.8,0,16.9-0.1,24-0.1c7.1-0.1,13.4-0.1,18.5-0.1c5.1,0,9.2-0.1,11.9-0.1s4.2-0.1,4.2-0.1v8.9c0,0-1.5,0-4.2-0.1
			c-2.7,0-6.8-0.1-11.9-0.1c-5.1,0-11.4-0.1-18.5-0.1c-7.1,0-15.2-0.1-24-0.1c-35.2-0.1-82.1-0.2-129.1-0.3
			c-23.5-0.1-46.9-0.2-68.9-0.3c-11-0.1-21.6-0.2-31.7-0.3c-10.1-0.1-19.6-0.2-28.4-0.3c-8.8-0.1-16.9-0.3-24-0.4
			s-13.4-0.3-18.5-0.4c-10.3-0.2-16.1-0.4-16.1-0.4L167.6,496L167.6,496z"/>
	</g>
	<g id="XMLID_27_">
		<path id="XMLID_70_" class="st15" d="M289.8,443.2c7-24.8,29.5-41.2,57.8-41.5c21.5-0.3,37.7,3.7,47.1,15.7
			c4.6,5.8,4.3,6.5,4.3,6.5h4.7l-3-38.5H395c-0.8,3.3-1.9,5.5-3.6,7.7c-1.7,2.1-4.1,1.7-6.7,1.7c-0.8,0-1.8-0.2-2.9-0.7
			c-1.2-0.5-2.6-1.2-4.2-2c-5.8-2.9-11.6-5.1-17.5-6.5s-11.8-2.1-17.7-2.1c-11.9,0-23,2.3-33.2,6.9s-19,10.9-26.5,18.8
			c-7.5,8-13.3,17.3-17.6,28c-4.2,10.7-6.4,22.3-6.4,34.7c0,5.1,0.4,10.1,1.1,14.8h28C287.8,486.4,283.6,465.2,289.8,443.2z"/>
		<path id="XMLID_69_" class="st15" d="M281.2,531.5c7.2,7.3,15.6,13.2,25.3,17.3c9.8,4.1,20.5,6.1,32.1,6.1
			c15.1,0,28.2-3.4,39.2-10.2c9.9-6.1,20.7-14.5,28.4-27v6h5.3l0.2-24.5h-6c0,0-0.2,5.3-6.2,12.5c-7.4,9-23.7,25.3-51.7,25.3
			c-33.4,0-54-23.3-59.9-50.5h-28C259.8,486.7,262.2,512.3,281.2,531.5z"/>
		<path id="XMLID_67_" class="st15" d="M452.9,472.4h36c5.4,0,9.6,0.4,12.7,1.2c7,1.8,10.2,6,11,9.1c0.3,1.2,0.6,3,0.9,4.5h5.7
			v-45.9h-4.4c-0.2,4.2-1.2,7.9-5.3,11.2c-2.2,1.7-4.5,3.4-7.8,4.3s-7.5,1.4-12.8,1.4h-36v-58.5H498c5.6,0,10.2,0.3,13.8,0.8
			s8.1,1.1,10.5,2.9c6.7,5.1,5.8,11.3,5.8,11.3h4.7V387H414.1v4.4h5.7c6.8,0,8.5,8.2,9,11.5s0.7,7.5,0.7,12.7v96.8h23.3L452.9,472.4
			L452.9,472.4z"/>
		<path id="XMLID_63_" class="st15" d="M429.6,522.1c0,8.1-0.8,13.3-1.5,16c-1,4.1-6.4,8.5-7.9,8.5h-5.7v4.5h111.8l11.6-29.6H533
			c-5.4,10.3-16.1,14.3-18.5,15s-5.1,1.2-8.3,1.5c-3.2,0.2-7.2,0.4-11.9,0.4h-27.8c-2.3,0-4.2-0.1-5.7-0.4c-1.5-0.2-2.7-0.6-3.6-1
			s-1.7-1-2.2-1.6s-1-1.3-1.2-2.1c-0.6-1.6-0.9-2.2-0.9-9.6v-19.3h-23.3V522.1z"/>
		<path id="XMLID_62_" class="st16" d="M599,550.2c-0.4,6.4-1.5,15.3-2.3,19c-0.9,3.7-8.8,9-14.1,9.1v5.7h44.2v-5.7
			c-4.7-0.7-5.1-0.4-7.5-8.8c-1-3.5-1.3-10.6-1-17l3.4-48h-19.3L599,550.2z"/>
		<path id="XMLID_61_" class="st16" d="M742.4,401.8h-10.5l3.8,84.6h14.6l-3.6-77.8c-0.2-0.7,0.5-9.2,1.2-10.9
			c0.6-1.7,2.2-3.5,4.7-5.5c1.6-1.3,3.1-2,4.5-2.3c1.3-0.3,0.2-0.6,3.4-0.9v-5.1h-26.6l-38.2,102.5h14L742.4,401.8z"/>
		<path id="XMLID_60_" class="st16" d="M737.9,527.8c0.4,7-0.2,22.7-11.6,22.7v5.9h40.2v-5.9c-11.1,0-12.7-15.1-12.9-20.2l-1.2-26
			h-15.5L737.9,527.8z"/>
		<path id="XMLID_59_" class="st16" d="M626.6,407.2h-5.7l30.2,79.2h21.6L635,383.9h-41.6v5.1c3.3,0.2,3.2,0.5,5.1,0.7
			c1.9,0.3,4,1.2,6.6,2.7c2.4,1.9,3.1,8.1,3.1,8.6l-4.7,85.4h19.2L626.6,407.2z"/>
		<polygon id="XMLID_28_" class="st16" points="683.9,520.9 677.9,504.4 657.9,504.4 675.7,556.4 687.6,556.4 705.1,504.4 
			691.1,504.4 		"/>
	</g>
</g>
<g id="Layer_9" class="st0">
</g>
</svg>
